<svg version="1.2" xmlns="http://www.w3.org/2000/svg" viewBox="0 0 820 860" width="820" height="860">
	<title>scripting-icon-svg</title>
	<style>
		.s0 { fill: #f2f2f2;stroke: #1b1b1d;paint-order:stroke fill markers;stroke-linejoin: round;stroke-width: 40 } 
	</style>
	<g id="Layer">
		<path id="Layer" fill-rule="evenodd" class="s0" d="m629 41c62.5 0.7 65.9 0.9 73.5 2.9 46.4 12.4 79.4 47.3 96.4 101.7 5.7 18.2 10.1 47.3 10.1 66.4-0.1 11.7-4.7 19.7-14.4 24.8l-5.1 2.7-39.7 0.3-39.6 0.3-0.5 4.2c-0.3 2.3-0.5 111.2-0.6 241.9l-0.1 237.7-3.4 11.3c-8.4 27.8-19.9 47.4-38.3 65.5-21.1 20.8-50.5 34.4-80.6 37.4-6.5 0.6-87.6 1-226.7 0.9-214.9 0-216.5 0-224-2.1-31.1-8.5-48.5-17.1-67.4-33.7-36.7-32.1-58.8-84.2-57.4-135.5l0.3-12.3 3.9-5.2c7.1-9.7 10-10.2 57.3-10.2 28.2 0 36.4-0.3 36.7-1.3 0.3-0.6 0.7-105.6 1-233.2 0.4-127.6 1-237.9 1.5-245 1-14.9 3.9-25 12-42.1 17.8-37.2 50.1-63.4 92.3-74.6 8.3-2.2 8.7-2.2 115.8-2.8 172.3-0.9 227.4-0.9 297 0zm-81.2 49.2c-220 0.4-312.8 1.2-320.6 2.7-23.9 4.5-47.5 23.7-59.1 48.1-2.3 4.7-4.6 11-5.1 14-2.4 12.2-2.9 63.9-3 269.7v215.3h111.8c147.5 0.1 171.5 0.5 177.1 3.5 4.1 2 8.6 7.6 10.4 12.6 0.8 2.4 2 10.2 2.7 17.3 3.4 38.2 15 66.5 35.6 87.2 17 17 37.5 26.3 62.5 28.4 42.9 3.5 77.2-17 94.5-56.7l3.8-8.8 1.8-555 5-13.5c9.6-25.7 21.2-45.5 33.2-56.8 3.7-3.4 7.1-6.2 7.6-6.2 0.6 0 1-0.5 1-1.1 0-0.7-46.7-0.9-159.2-0.7z"/>
		<path id="Layer" class="s0" d="m330.4 291c-2.3 0.3-5.3 1.4-6.7 2.3-8.6 5.6-108.3 105.4-111.9 112-2.6 4.7-2.4 14.3 0.5 19.6 4.2 7.9 100.9 104.6 111.8 111.8 3.3 2.2 5.1 2.7 10.2 2.6 7.3-0.1 11.9-1.8 17.1-6.3 6.6-5.8 9.4-14.4 7.7-23.4-1-5.6-5.8-10.8-55-60.5-18.2-18.3-33.1-33.8-33.1-34.4 0-0.5 19.4-20.5 43.1-44.4 26.9-27.1 43.6-44.6 44.5-46.8 0.8-1.9 1.4-5 1.4-6.9 0-8.5-6.3-19.6-13.2-23.2-3.9-2-11.3-3.1-16.4-2.4z"/>
		<path id="Layer" class="s0" d="m476.3 291.6c-10.1 3.7-17 14.9-16.1 25.9 0.4 4.4 1.2 6.4 4.8 11.2 2.4 3.2 22.6 24.2 44.9 46.6l40.5 40.8-30.1 29.7c-41.9 41.3-58 58.5-59.4 63.7-2.2 7.9 0.3 16.8 6.5 23.3 5 5.4 8.1 6.6 17.3 6.5 6.8 0 8.8-0.4 12.3-2.4 9.3-5.6 105-102 110.6-111.5 2-3.3 2.7-6 2.8-9.9 0-4.7-0.5-6.1-3.9-11.2-4.4-6.5-65.4-68.5-92.2-93.8-9.5-8.9-18.8-17-20.8-17.9-5.1-2.4-12.2-2.8-17.2-1z"/>
	</g>
</svg>